@startuml
'https://plantuml.com/class-diagram

package 100 {
  interface 유닛{
  탄생()
  죽음()
  }

interface 건물{
건설()
파괴()
}

interface 생물{
치료받다()
}

interface 기계{
수리받다()
}

class 스타객체{
이름
체력
}
}

package "종족" {
'스타객체 를 상속받는 3개의 종족
class 테란

class 저그{
체력회복()
}

class 프로토스{
int 실드
실드회복()
}
}
'스타객체 를 상속받는 3개의 종족

package "건물" {
'각 종족을 상속 받는 종족 별 건물.
class 테란건물
class 저그건물
class 프로토스건물
'각 종족을 상속 받는 종족 별 건물.
}

package "종족별 건물" {
'각 건물을 상속 받는 종족 별 건물.
class 배럭
class 해처리
class 넥서스
}

package "종족별 유닛" {
''각 종족을 상속 받는 종족 별 유닛.
class 테란유닛
class 저그유닛
class 프로토스유닛
''각 종족을 상속 받는 종족 별 유닛.
}

package "테란 유닛" {
''유닛을 상속 받는 종족 별 유닛.
class 벌처
class 탱크
class 마린
class 매딕{
치료하다(생물)
}
class SCV{
자원채취(자원)
수리하다(기계)
}
}

package "프로토스 유닛" {
class 질럿
class 드라군
''유닛을 상속 받는 종족 별 유닛.
}

스타객체 <|-- 테란
스타객체 <|-- 저그
스타객체 <|-- 프로토스

유닛 <|.. 테란유닛
기계 <|.. 벌처
기계 <|.. 탱크
기계 <|.. SCV
테란유닛 <|-- 벌처
테란유닛 <|-- 탱크
테란유닛 <|-- SCV

생물 <|.. 마린
생물 <|.. 매딕
생물 <|.. SCV
테란유닛 <|-- 마린
테란유닛 <|-- 매딕
테란 <|-- 테란유닛

유닛 <|.. 프로토스유닛
프로토스유닛 <|-- 질럿
프로토스유닛 <|-- 드라군
기계 <|.. 드라군
생물 <|.. 질럿
프로토스 <|-- 프로토스유닛

유닛 <|.. 저그유닛
저그 <|-- 저그유닛

건물 <|.. 테란
기계 <|.. 테란
테란 <|-- 테란건물

건물 <|.. 저그
저그 <|-- 저그건물

건물 <|.. 프로토스
프로토스 <|-- 프로토스건물

테란건물 <|-- 배럭
저그건물 <|-- 해처리
프로토스건물 <|-- 넥서스

@enduml